<?xml version="1.0" encoding="utf-8"?>
<!-- Generator: Adobe Illustrator 22.1.0, SVG Export Plug-In . SVG Version: 6.00 Build 0)  -->
<svg version="1.1" id="Layer_1" xmlns="http://www.w3.org/2000/svg" xmlns:xlink="http://www.w3.org/1999/xlink" x="0px" y="0px"
	 viewBox="0 0 1366 768" style="enable-background:new 0 0 1366 768;" xml:space="preserve">
<style type="text/css">
	.st0{fill:url(#SVGID_1_);}
	.st1{fill:url(#SVGID_2_);}
	.st2{fill:url(#SVGID_3_);}
	.st3{fill:url(#SVGID_4_);}
	.st4{fill:url(#SVGID_5_);}
	.st5{fill:#1E40E6;}
	.st6{fill:url(#SVGID_6_);}
	.st7{fill:url(#SVGID_7_);}
	.st8{fill:url(#SVGID_8_);}
	.st9{fill:url(#SVGID_9_);}
	.st10{fill:url(#SVGID_10_);}
	.st11{fill:url(#SVGID_11_);}
</style>
<linearGradient id="SVGID_1_" gradientUnits="userSpaceOnUse" x1="475" y1="569.6" x2="475" y2="278.5999" gradientTransform="matrix(1 0 0 -1 0 768)">
	<stop  offset="0" style="stop-color:#FFFFFF"/>
	<stop  offset="0.512" style="stop-color:#FDFDFF"/>
	<stop  offset="0.6964" style="stop-color:#F6F6FF"/>
	<stop  offset="0.8278" style="stop-color:#EBEBFF"/>
	<stop  offset="0.9334" style="stop-color:#DADAFF"/>
	<stop  offset="0.9944" style="stop-color:#CCCCFF"/>
</linearGradient>
<path class="st0" d="M736.4,424.4c0,9-1.9,17.7-5.3,25.5c-1.8,4.1-4,8-6.6,11.6c-0.8,1.1-1.6,2.1-2.4,3.1c-1.3,1.6-2.7,3.1-4.1,4.6
	c-0.4,0.4-0.8,0.8-1.1,1.1c-0.6,0.6-1.2,1.1-1.8,1.7c-1,0.9-1.9,1.7-3,2.5c-2.2,1.8-4.6,3.4-7,4.9c-0.6,0.4-1.3,0.8-2,1.1
	c-2.3,1.3-4.6,2.5-7,3.5c-1,0.4-2,0.8-3,1.2c-2.3,0.9-4.6,1.6-7,2.2c-0.6,0.2-1.3,0.3-2,0.4c-2.3,0.5-4.7,0.9-7,1.1
	c-1,0.1-2,0.2-3,0.3c-1.5,0.1-3,0.2-4.5,0.2H280.5c-1.8,0-3.7-0.1-5.5-0.2c-0.7,0-1.3-0.1-2-0.2c-2.4-0.2-4.7-0.6-7-1.1
	c-1-0.2-2-0.5-3-0.7c-2.4-0.6-4.8-1.4-7-2.3c-0.7-0.2-1.3-0.5-2-0.8c-2.4-1-4.8-2.2-7-3.5c-1.1-0.6-2.1-1.2-3.1-1.9
	c-2.4-1.5-4.7-3.2-6.9-5c-0.7-0.6-1.3-1.1-2-1.7c-2.5-2.3-4.9-4.8-7-7.4c-1-1.3-2-2.6-3-3.9c-2.8-4.1-5.2-8.5-7-13.2
	c-0.8-1.9-1.4-3.8-2-5.8c-1.6-5.5-2.4-11.4-2.4-17.4c0-2.2,0.1-4.4,0.3-6.6c0.1-0.9,0.2-1.7,0.3-2.6l0,0c0.2-1.8,0.6-3.5,1-5.2
	c2-8.7,5.8-16.7,11-23.6c-1.5-4-2.7-8.2-3.6-12.4c-1.2-5.7-1.8-11.7-1.8-17.7c0-49,40.9-88.8,91.3-88.8c15.8,0,30.6,3.9,43.6,10.8
	c13.2-30.6,44.3-52.1,80.5-52.1c16.4,0,31.7,4.4,44.8,12c26.3-24.6,62-39.7,101.3-39.7c80.7,0,146.1,63.7,146.1,142.2
	c0,15-2.4,29.4-6.8,42.9C730.8,394.8,736.4,409,736.4,424.4z"/>
<linearGradient id="SVGID_2_" gradientUnits="userSpaceOnUse" x1="1003" y1="383" x2="1003" y2="198" gradientTransform="matrix(1 0 0 -1 0 768)">
	<stop  offset="0" style="stop-color:#FFFFFF"/>
	<stop  offset="0.512" style="stop-color:#FDFDFF"/>
	<stop  offset="0.6964" style="stop-color:#F6F6FF"/>
	<stop  offset="0.8278" style="stop-color:#EBEBFF"/>
	<stop  offset="0.9334" style="stop-color:#DADAFF"/>
	<stop  offset="0.9944" style="stop-color:#CCCCFF"/>
</linearGradient>
<path class="st1" d="M1153,525.7v7.6c0,20.3-16.4,36.7-36.7,36.7H889.7c-20.3,0-36.7-16.4-36.7-36.7v-7.6c0-9.9,3.9-18.9,10.3-25.5
	c-2.1-7.7-3.3-15.8-3.3-24.2c0-50.3,40.7-91,91-91c22.5,0,43,8.1,58.9,21.6c10.7-4.9,22.5-7.6,35.1-7.6c46.4,0,84,37.6,84,84
	c0,2.7-0.1,5.5-0.4,8.1C1142.8,496.2,1153,509.8,1153,525.7z"/>
<linearGradient id="SVGID_3_" gradientUnits="userSpaceOnUse" x1="195" y1="697" x2="195" y2="578" gradientTransform="matrix(1 0 0 -1 0 768)">
	<stop  offset="0" style="stop-color:#FFFFFF"/>
	<stop  offset="0.512" style="stop-color:#FDFDFF"/>
	<stop  offset="0.6964" style="stop-color:#F6F6FF"/>
	<stop  offset="0.8278" style="stop-color:#EBEBFF"/>
	<stop  offset="0.9334" style="stop-color:#DADAFF"/>
	<stop  offset="0.9944" style="stop-color:#CCCCFF"/>
</linearGradient>
<path class="st2" d="M269,160.5c0,16.3-13.2,29.5-29.5,29.5c-9.6,0-18.2-4.6-23.5-11.7c-9.9,7.4-22.2,11.7-35.5,11.7
	c-32.9,0-59.5-26.6-59.5-59.5S147.6,71,180.5,71S240,97.6,240,130.5c0,0.2,0,0.3,0,0.5C256,131.3,269,144.4,269,160.5z"/>
<linearGradient id="SVGID_4_" gradientUnits="userSpaceOnUse" x1="1271" y1="198" x2="1271" y2="13" gradientTransform="matrix(-1 0 0 -1 1446 768)">
	<stop  offset="0" style="stop-color:#FFFFFF"/>
	<stop  offset="0.512" style="stop-color:#FDFDFF"/>
	<stop  offset="0.6964" style="stop-color:#F6F6FF"/>
	<stop  offset="0.8278" style="stop-color:#EBEBFF"/>
	<stop  offset="0.9334" style="stop-color:#DADAFF"/>
	<stop  offset="0.9944" style="stop-color:#CCCCFF"/>
</linearGradient>
<path class="st3" d="M25,710.7v7.6c0,20.3,16.4,36.7,36.7,36.7h226.6c20.3,0,36.7-16.4,36.7-36.7v-7.6c0-9.9-3.9-18.9-10.3-25.5
	c2.1-7.7,3.3-15.8,3.3-24.2c0-50.3-40.7-91-91-91c-22.5,0-43,8.1-58.9,21.6c-10.7-4.9-22.5-7.6-35.1-7.6c-46.4,0-84,37.6-84,84
	c0,2.7,0.1,5.5,0.4,8.1C35.2,681.2,25,694.8,25,710.7z"/>
<linearGradient id="SVGID_5_" gradientUnits="userSpaceOnUse" x1="1056.0198" y1="723" x2="1056.0198" y2="500" gradientTransform="matrix(-1 0 0 -1 2159.4199 768)">
	<stop  offset="0" style="stop-color:#FFFFFF"/>
	<stop  offset="0.512" style="stop-color:#FDFDFF"/>
	<stop  offset="0.6964" style="stop-color:#F6F6FF"/>
	<stop  offset="0.8278" style="stop-color:#EBEBFF"/>
	<stop  offset="0.9334" style="stop-color:#DADAFF"/>
	<stop  offset="0.9944" style="stop-color:#CCCCFF"/>
</linearGradient>
<path class="st4" d="M902.9,218.1c0,6.9,1.4,13.5,4.1,19.5c1.4,3.1,3.1,6.1,5.1,8.9c0.6,0.8,1.2,1.6,1.8,2.4c1,1.2,2.1,2.4,3.2,3.5
	c0.3,0.3,0.6,0.6,0.9,0.9c0.5,0.4,0.9,0.9,1.4,1.3c0.7,0.7,1.5,1.3,2.3,1.9c1.7,1.4,3.5,2.6,5.4,3.8c0.5,0.3,1,0.6,1.5,0.9
	c1.7,1,3.5,1.9,5.4,2.7c0.7,0.3,1.5,0.6,2.3,0.9c1.8,0.7,3.6,1.2,5.4,1.7c0.5,0.1,1,0.2,1.5,0.3c1.8,0.4,3.6,0.7,5.4,0.9
	c0.8,0.1,1.5,0.2,2.3,0.2c1.1,0.1,2.3,0.1,3.5,0.1h298.1c1.4,0,2.8-0.1,4.2-0.2c0.5,0,1-0.1,1.5-0.1c1.8-0.2,3.6-0.5,5.4-0.9
	c0.8-0.2,1.5-0.3,2.3-0.5c1.8-0.5,3.6-1.1,5.4-1.7c0.5-0.2,1-0.4,1.5-0.6c1.9-0.8,3.7-1.7,5.4-2.7c0.8-0.4,1.6-0.9,2.4-1.4
	c1.8-1.2,3.6-2.5,5.3-3.9c0.5-0.4,1-0.9,1.5-1.3c1.9-1.8,3.7-3.7,5.4-5.7c0.8-1,1.5-2,2.3-3c2.2-3.1,4-6.5,5.4-10.1
	c0.6-1.4,1.1-2.9,1.5-4.4c1.2-4.2,1.9-8.7,1.9-13.3c0-1.7-0.1-3.4-0.3-5c-0.1-0.7-0.1-1.3-0.2-2l0,0c-0.2-1.4-0.4-2.7-0.8-4
	c-1.5-6.6-4.4-12.8-8.4-18.1c1.1-3.1,2.1-6.2,2.7-9.5c0.9-4.4,1.4-8.9,1.4-13.6c0-37.6-31.3-68.1-69.9-68.1c-12.1,0-23.5,3-33.4,8.3
	c-10.1-23.4-33.9-39.9-61.7-39.9c-12.6,0-24.3,3.4-34.4,9.2C1078.5,56.6,1051.1,45,1021,45c-61.8,0-112,48.8-112,109
	c0,11.5,1.8,22.5,5.2,32.9C907.2,195.4,902.9,206.3,902.9,218.1z"/>
<rect class="st5" width="1366" height="768"/>
<title>clouds</title>
<linearGradient id="SVGID_6_" gradientUnits="userSpaceOnUse" x1="519.1001" y1="226.3995" x2="519.1001" y2="517.4" gradientTransform="matrix(1 0 0 1 -25 -43)">
	<stop  offset="0" style="stop-color:#FFFFFF"/>
	<stop  offset="0.51" style="stop-color:#FDFDFF"/>
	<stop  offset="0.7" style="stop-color:#F6F6FF"/>
	<stop  offset="0.83" style="stop-color:#EBEBFF"/>
	<stop  offset="0.93" style="stop-color:#DADAFF"/>
	<stop  offset="0.99" style="stop-color:#CCCCFF"/>
</linearGradient>
<path class="st6" d="M755.4,409.4c0,8.8-1.8,17.5-5.3,25.5c-1.8,4.1-4,8-6.6,11.6c-0.8,1.1-1.6,2.1-2.4,3.1
	c-1.3,1.6-2.7,3.2-4.1,4.6l-1.1,1.1c-0.6,0.6-1.2,1.1-1.8,1.7c-1,0.9-1.9,1.7-3,2.5c-2.2,1.8-4.6,3.5-7,5c-0.7,0.4-1.3,0.8-2,1.1
	c-2.3,1.3-4.6,2.5-7,3.5c-1,0.4-2,0.8-3,1.2c-2.3,0.9-4.6,1.6-7,2.2c-0.6,0.2-1.3,0.3-2,0.4c-2.3,0.5-4.6,0.9-7,1.1
	c-1,0.1-2,0.2-3,0.3c-1.5,0.1-3,0.1-4.5,0.1h-389c-1.8,0-3.7-0.1-5.5-0.2c-0.7,0-1.3-0.1-2-0.2c-2.4-0.2-4.7-0.6-7-1.1
	c-1-0.2-2-0.5-3-0.7c-2.4-0.6-4.7-1.4-7-2.3c-0.7-0.2-1.3-0.5-2-0.8c-2.4-1-4.8-2.2-7-3.5c-1.1-0.6-2.1-1.2-3.1-1.9
	c-2.4-1.5-4.7-3.2-6.9-5c-0.7-0.6-1.3-1.1-2-1.7c-2.5-2.3-4.9-4.8-7-7.4c-1-1.3-2-2.6-2.9-3.9c-2.9-4.1-5.2-8.6-7.1-13.2
	c-0.8-1.9-1.4-3.8-1.9-5.8c-1.6-5.7-2.4-11.5-2.4-17.4c0-2.2,0.1-4.4,0.3-6.6c0.1-0.9,0.2-1.7,0.3-2.6l0,0c0.2-1.8,0.6-3.5,1-5.2
	c2-8.6,5.7-16.6,11-23.6c-3.6-9.7-5.4-19.9-5.4-30.1c0-49,40.9-88.8,91.3-88.8c15.2,0,30.2,3.7,43.6,10.8
	c13.2-30.6,44.3-52.1,80.5-52.1c15.7-0.1,31.2,4.1,44.8,12c27.5-25.6,63.7-39.8,101.3-39.7c80.7,0,146.1,63.7,146.1,142.2
	c0,14.6-2.3,29.1-6.8,42.9C750.2,380.1,755.4,394.5,755.4,409.4z"/>
<linearGradient id="SVGID_7_" gradientUnits="userSpaceOnUse" x1="1047" y1="412.9161" x2="1047" y2="598" gradientTransform="matrix(1 0 0 1 -25 -43)">
	<stop  offset="0" style="stop-color:#FFFFFF"/>
	<stop  offset="0.51" style="stop-color:#FDFDFF"/>
	<stop  offset="0.7" style="stop-color:#F6F6FF"/>
	<stop  offset="0.83" style="stop-color:#EBEBFF"/>
	<stop  offset="0.93" style="stop-color:#DADAFF"/>
	<stop  offset="0.99" style="stop-color:#CCCCFF"/>
</linearGradient>
<path class="st7" d="M1172,510.7v7.6c0,20.3-16.4,36.7-36.7,36.7H908.7c-20.3,0-36.7-16.4-36.7-36.7l0,0v-7.6
	c0-9.5,3.7-18.6,10.3-25.5c-13.4-48.4,15-98.6,63.4-112c29.1-8,60.2-1.2,83.2,18.4c42.2-19.4,92-0.9,111.4,41.3
	c5.1,11,7.7,23,7.7,35.1c0,2.7-0.1,5.4-0.4,8.1C1162.2,481.3,1172,495.2,1172,510.7z"/>
<linearGradient id="SVGID_8_" gradientUnits="userSpaceOnUse" x1="137.0111" y1="253.0026" x2="137.0111" y2="371.8998" gradientTransform="matrix(1 0 0 1 -25 -43)">
	<stop  offset="0" style="stop-color:#FFFFFF"/>
	<stop  offset="0.51" style="stop-color:#FDFDFF"/>
	<stop  offset="0.7" style="stop-color:#F6F6FF"/>
	<stop  offset="0.83" style="stop-color:#EBEBFF"/>
	<stop  offset="0.93" style="stop-color:#DADAFF"/>
	<stop  offset="0.99" style="stop-color:#CCCCFF"/>
</linearGradient>
<path class="st8" d="M186,299.5c0,16.3-13.3,29.5-29.6,29.4c-9.2,0-17.9-4.3-23.4-11.7c-26.4,19.6-63.6,14.1-83.2-12.2
	c-19.6-26.3-14.2-63.6,12.2-83.2s63.6-14.1,83.2,12.2c7.6,10.3,11.7,22.7,11.8,35.5c0,0.2,0,0.3,0,0.5
	C173.1,270.3,186,283.4,186,299.5z"/>
<linearGradient id="SVGID_9_" gradientUnits="userSpaceOnUse" x1="1229" y1="597.9161" x2="1229" y2="783" gradientTransform="matrix(-1 0 0 1 1423 -43)">
	<stop  offset="0" style="stop-color:#FFFFFF"/>
	<stop  offset="0.51" style="stop-color:#FDFDFF"/>
	<stop  offset="0.7" style="stop-color:#F6F6FF"/>
	<stop  offset="0.83" style="stop-color:#EBEBFF"/>
	<stop  offset="0.93" style="stop-color:#DADAFF"/>
	<stop  offset="0.99" style="stop-color:#CCCCFF"/>
</linearGradient>
<path class="st9" d="M44,695.7v7.6c0,20.3,16.4,36.7,36.7,36.7l0,0h226.6c20.3,0,36.7-16.4,36.7-36.7l0,0v-7.6
	c0-9.5-3.7-18.6-10.3-25.5c13.4-48.4-15-98.6-63.4-112c-29.1-8-60.2-1.2-83.2,18.4c-42.2-19.4-92-0.9-111.4,41.3
	c-5.1,11-7.7,23-7.7,35.1c0,2.7,0.1,5.4,0.4,8.1C53.8,666.3,44,680.2,44,695.7z"/>
<linearGradient id="SVGID_10_" gradientUnits="userSpaceOnUse" x1="1014.0197" y1="73.0993" x2="1014.0197" y2="296" gradientTransform="matrix(-1 0 0 1 2136.4199 -43)">
	<stop  offset="0" style="stop-color:#FFFFFF"/>
	<stop  offset="0.51" style="stop-color:#FDFDFF"/>
	<stop  offset="0.7" style="stop-color:#F6F6FF"/>
	<stop  offset="0.83" style="stop-color:#EBEBFF"/>
	<stop  offset="0.93" style="stop-color:#DADAFF"/>
	<stop  offset="0.99" style="stop-color:#CCCCFF"/>
</linearGradient>
<path class="st10" d="M921.9,203.1c0,6.7,1.4,13.4,4.1,19.5c1.4,3.1,3.1,6.1,5.1,8.9c0.6,0.8,1.2,1.6,1.8,2.4c1,1.2,2.1,2.4,3.2,3.6
	l0.9,0.9c0.5,0.4,0.9,0.9,1.4,1.3c0.7,0.7,1.5,1.3,2.3,1.9c1.7,1.4,3.5,2.7,5.4,3.8c0.5,0.3,1,0.6,1.5,0.9c1.7,1,3.5,1.9,5.4,2.6
	c0.8,0.3,1.5,0.6,2.3,0.9c1.8,0.7,3.6,1.2,5.4,1.7c0.5,0.1,1,0.2,1.5,0.3c1.8,0.4,3.6,0.7,5.4,0.9c0.8,0.1,1.5,0.1,2.3,0.2
	c1.1,0.1,2.3,0.1,3.5,0.1h298.1c1.4,0,2.8,0,4.2-0.2c0.5,0,1-0.1,1.5-0.1c1.8-0.2,3.6-0.5,5.4-0.9c0.8-0.2,1.5-0.4,2.3-0.5
	c1.8-0.5,3.6-1,5.4-1.7c0.5-0.2,1-0.4,1.5-0.6c1.9-0.8,3.7-1.7,5.4-2.6c0.8-0.4,1.6-0.9,2.4-1.4c1.8-1.2,3.6-2.5,5.3-3.9
	c0.5-0.4,1-0.9,1.5-1.3c1.9-1.7,3.7-3.6,5.4-5.7c0.8-1,1.6-2,2.3-3c2.2-3.2,4-6.5,5.4-10.1c0.6-1.5,1.1-2.9,1.5-4.4
	c1.2-4.3,1.9-8.8,1.9-13.3c0-1.7-0.1-3.3-0.3-5c-0.1-0.7-0.2-1.3-0.2-2l0,0c-0.2-1.4-0.4-2.7-0.8-4c-1.5-6.6-4.4-12.7-8.4-18.1
	c1.1-3.1,2.1-6.3,2.7-9.5c0.9-4.5,1.4-9,1.4-13.6c0-37.6-31.3-68.1-69.9-68.1c-11.6,0-23.1,2.8-33.4,8.2
	c-10.1-23.4-33.9-39.9-61.7-39.9c-12.1,0-23.9,3.2-34.4,9.2c-21.1-19.6-48.8-30.5-77.6-30.4c-61.8,0-112,48.8-112,109
	c0,11.2,1.7,22.3,5.2,32.9C925.9,180.7,921.9,191.7,921.9,203.1z"/>
<linearGradient id="SVGID_11_" gradientUnits="userSpaceOnUse" x1="1064.0221" y1="654.0514" x2="1064.0221" y2="772.9486" gradientTransform="matrix(-1 0 0 1 2140.9963 -43)">
	<stop  offset="0" style="stop-color:#FFFFFF"/>
	<stop  offset="0.51" style="stop-color:#FDFDFF"/>
	<stop  offset="0.7" style="stop-color:#F6F6FF"/>
	<stop  offset="0.83" style="stop-color:#EBEBFF"/>
	<stop  offset="0.93" style="stop-color:#DADAFF"/>
	<stop  offset="0.99" style="stop-color:#CCCCFF"/>
</linearGradient>
<path class="st11" d="M1003,700.5c0,16.3,13.3,29.5,29.6,29.4c9.2,0,17.9-4.3,23.4-11.7c26.4,19.6,63.6,14.1,83.2-12.2
	c19.6-26.4,14.1-63.6-12.2-83.2c-26.4-19.6-63.6-14.1-83.2,12.2c-7.6,10.3-11.7,22.7-11.8,35.5c0,0.2,0,0.3,0,0.5
	C1015.9,671.3,1003,684.4,1003,700.5z"/>
</svg>
