<?xml version="1.0" encoding="utf-8"?>
<!-- Generator: Adobe Illustrator 22.1.0, SVG Export Plug-In . SVG Version: 6.00 Build 0)  -->
<svg version="1.1" xmlns="http://www.w3.org/2000/svg" xmlns:xlink="http://www.w3.org/1999/xlink" x="0px" y="0px"
	 viewBox="0 0 400 400" style="enable-background:new 0 0 400 400;" xml:space="preserve">
<style type="text/css">
	.st0{fill:#1E40E6;}
	.st1{fill:url(#SVGID_1_);}
</style>
<g id="Layer_2">
	<rect class="st0" width="400" height="400"/>
</g>
<g id="Layer_1">
	
		<linearGradient id="SVGID_1_" gradientUnits="userSpaceOnUse" x1="232.5771" y1="270.7778" x2="232.5771" y2="76.4722" gradientTransform="matrix(1 0 0 -1 -25 357)">
		<stop  offset="0" style="stop-color:#FFFFFF"/>
		<stop  offset="0.51" style="stop-color:#FDFDFF"/>
		<stop  offset="0.7" style="stop-color:#F6F6FF"/>
		<stop  offset="0.83" style="stop-color:#EBEBFF"/>
		<stop  offset="0.93" style="stop-color:#DADAFF"/>
		<stop  offset="0.99" style="stop-color:#CCCCFF"/>
	</linearGradient>
	<path class="st1" d="M382.1,237.1c0,5.9-1.2,11.7-3.6,17c-1.2,2.7-2.7,5.3-4.4,7.8c-0.5,0.7-1,1.4-1.6,2.1
		c-0.9,1.1-1.8,2.1-2.8,3.1l-0.8,0.8c-0.4,0.4-0.8,0.8-1.2,1.1c-0.7,0.6-1.3,1.1-2,1.7c-1.5,1.2-3,2.3-4.7,3.3
		c-0.4,0.3-0.9,0.5-1.3,0.8c-1.5,0.9-3.1,1.6-4.7,2.3c-0.7,0.3-1.3,0.5-2,0.8c-1.5,0.6-3.1,1.1-4.7,1.4c-0.4,0.1-0.9,0.2-1.3,0.3
		c-1.5,0.3-3.1,0.6-4.7,0.8c-0.7,0.1-1.3,0.1-2,0.2c-1,0.1-2,0.1-3,0.1H77.7c-1.2,0-2.5,0-3.7-0.1c-0.4,0-0.9-0.1-1.3-0.1
		c-1.6-0.2-3.2-0.4-4.7-0.7c-0.7-0.1-1.3-0.3-2-0.5c-1.6-0.4-3.2-0.9-4.7-1.5c-0.4-0.2-0.9-0.3-1.3-0.5c-1.6-0.7-3.2-1.4-4.7-2.3
		c-0.7-0.4-1.4-0.8-2.1-1.2c-1.6-1-3.1-2.1-4.6-3.3c-0.4-0.4-0.9-0.8-1.3-1.1c-1.7-1.5-3.2-3.2-4.7-4.9c-0.7-0.8-1.3-1.7-2-2.6
		c-1.9-2.8-3.5-5.7-4.7-8.8c-0.5-1.3-0.9-2.6-1.3-3.9c-1.1-3.8-1.6-7.7-1.6-11.6c0-1.5,0.1-2.9,0.2-4.4c0.1-0.6,0.1-1.1,0.2-1.7l0,0
		c0.2-1.2,0.4-2.3,0.7-3.5c1.3-5.7,3.8-11.1,7.3-15.8c-2.4-6.4-3.6-13.3-3.6-20.1c0-32.7,27.3-59.3,60.9-59.3
		c10.1,0,20.1,2.4,29.1,7.2c8.8-20.4,29.6-34.8,53.7-34.8c10.5,0,20.8,2.7,29.9,8c18.3-17.1,42.5-26.6,67.6-26.5
		c53.9,0,97.5,42.5,97.5,94.9c0,9.7-1.5,19.4-4.5,28.7C378.6,217.5,382.1,227.1,382.1,237.1z"/>
</g>
</svg>
