<svg id="Layer_1" data-name="Layer 1" xmlns="http://www.w3.org/2000/svg" xmlns:xlink="http://www.w3.org/1999/xlink" viewBox="0 0 1278.51 710"><defs><style>.cls-1{fill:url(#linear-gradient);}.cls-2{fill:url(#linear-gradient-2);}.cls-3{fill:url(#linear-gradient-3);}.cls-4{fill:url(#linear-gradient-4);}.cls-5{fill:url(#linear-gradient-5);}</style><linearGradient id="linear-gradient" x1="475" y1="198.5" x2="475" y2="489.5" gradientUnits="userSpaceOnUse"><stop offset="0" stop-color="#fff"/><stop offset="0.51" stop-color="#fdfdff"/><stop offset="0.7" stop-color="#f6f6ff"/><stop offset="0.83" stop-color="#ebebff"/><stop offset="0.93" stop-color="#dadaff"/><stop offset="0.99" stop-color="#ccf"/></linearGradient><linearGradient id="linear-gradient-2" x1="1003" y1="385" x2="1003" y2="570" xlink:href="#linear-gradient"/><linearGradient id="linear-gradient-3" x1="195" y1="71" x2="195" y2="190" xlink:href="#linear-gradient"/><linearGradient id="linear-gradient-4" x1="1271" y1="570" x2="1271" y2="755" gradientTransform="matrix(-1, 0, 0, 1, 1446, 0)" xlink:href="#linear-gradient"/><linearGradient id="linear-gradient-5" x1="1056.21" y1="45" x2="1056.21" y2="268" gradientTransform="matrix(-1, 0, 0, 1, 2159.42, 0)" xlink:href="#linear-gradient"/></defs><title>clouds</title><path class="cls-1" d="M736.37,424.44a63.33,63.33,0,0,1-5.32,25.49,64.78,64.78,0,0,1-6.6,11.61c-.77,1.07-1.57,2.12-2.4,3.14q-1.95,2.42-4.13,4.63l-1.13,1.13c-.59.57-1.18,1.13-1.79,1.67-1,.88-1.94,1.72-3,2.53a65.56,65.56,0,0,1-7,4.95q-1,.6-2,1.14a63.93,63.93,0,0,1-7,3.46c-1,.41-2,.8-3,1.16a63.92,63.92,0,0,1-7,2.16c-.64.16-1.29.31-2,.44a63.15,63.15,0,0,1-7,1.14c-1,.11-2,.2-3,.26-1.49.1-3,.15-4.52.15H280.47c-1.84,0-3.67-.07-5.47-.22-.66,0-1.3-.11-1.95-.18A65.53,65.53,0,0,1,266,488c-1-.21-2-.45-2.95-.71A64.33,64.33,0,0,1,256,485q-1-.37-1.95-.78a65.77,65.77,0,0,1-7.05-3.46c-1.06-.58-2.1-1.21-3.12-1.86a65.53,65.53,0,0,1-6.88-5c-.67-.56-1.33-1.13-2-1.71a66.49,66.49,0,0,1-7-7.41c-1-1.27-2-2.57-2.95-3.92A63.9,63.9,0,0,1,218,447.62a57.89,57.89,0,0,1-1.95-5.79,63.3,63.3,0,0,1-2.42-17.39,62,62,0,0,1,.34-6.57c.09-.86.19-1.71.32-2.56h0c.25-1.77.58-3.51,1-5.24a63.54,63.54,0,0,1,11-23.64,86.83,86.83,0,0,1-5.4-30.15c0-49,40.86-88.82,91.26-88.82a92.93,92.93,0,0,1,43.6,10.77c13.2-30.58,44.26-52.06,80.48-52.06a88.66,88.66,0,0,1,44.83,12,147.75,147.75,0,0,1,101.27-39.7c80.69,0,146.1,63.66,146.1,142.19a138.46,138.46,0,0,1-6.79,42.94A63.66,63.66,0,0,1,736.37,424.44Z" transform="translate(-25 -45)"/><path class="cls-2" d="M1153,525.69v7.62A36.69,36.69,0,0,1,1116.31,570H889.69A36.69,36.69,0,0,1,853,533.31v-7.62a36.56,36.56,0,0,1,10.27-25.45,91,91,0,0,1,146.66-93.59A84,84,0,0,1,1129,483q0,4.11-.39,8.12A36.7,36.7,0,0,1,1153,525.69Z" transform="translate(-25 -45)"/><path class="cls-3" d="M269,160.5a29.5,29.5,0,0,1-53,17.78,59.5,59.5,0,1,1,24-47.78c0,.17,0,.34,0,.51A29.5,29.5,0,0,1,269,160.5Z" transform="translate(-25 -45)"/><path class="cls-4" d="M25,710.69v7.62A36.69,36.69,0,0,0,61.69,755H288.31A36.69,36.69,0,0,0,325,718.31v-7.62a36.56,36.56,0,0,0-10.27-25.45,91,91,0,0,0-146.66-93.59A84,84,0,0,0,49,668q0,4.11.39,8.12A36.7,36.7,0,0,0,25,710.69Z" transform="translate(-25 -45)"/><path class="cls-5" d="M902.92,218.14A48.68,48.68,0,0,0,907,237.68a49.91,49.91,0,0,0,5.06,8.89c.59.82,1.21,1.63,1.84,2.41q1.5,1.85,3.17,3.55l.86.86c.45.44.91.87,1.37,1.28.74.68,1.49,1.32,2.27,1.94a48.92,48.92,0,0,0,5.4,3.8c.49.3,1,.59,1.49.87a48.22,48.22,0,0,0,5.4,2.65c.75.31,1.5.61,2.27.89a50.46,50.46,0,0,0,5.4,1.66c.49.12,1,.23,1.49.33a50.64,50.64,0,0,0,5.4.88c.76.08,1.51.15,2.27.2,1.14.07,2.29.11,3.46.11h298.14c1.41,0,2.82-.05,4.2-.17.5,0,1-.08,1.49-.14a50.61,50.61,0,0,0,5.4-.86c.76-.16,1.52-.35,2.26-.55a47.32,47.32,0,0,0,5.41-1.73c.5-.19,1-.39,1.49-.6a50,50,0,0,0,5.4-2.65c.82-.44,1.61-.92,2.39-1.42a50.29,50.29,0,0,0,5.28-3.86c.51-.43,1-.86,1.51-1.31a49.8,49.8,0,0,0,5.38-5.68c.8-1,1.55-2,2.26-3a49.16,49.16,0,0,0,5.41-10.12,45.36,45.36,0,0,0,1.49-4.44,48.55,48.55,0,0,0,1.86-13.33,49.09,49.09,0,0,0-.26-5c-.07-.66-.15-1.31-.25-2h0c-.19-1.36-.44-2.69-.75-4a48.64,48.64,0,0,0-8.4-18.11,67.79,67.79,0,0,0,2.74-9.51,66.26,66.26,0,0,0,1.4-13.6c0-37.59-31.31-68.06-69.94-68.06a71.19,71.19,0,0,0-33.41,8.25C1184.53,82.66,1160.72,66.2,1133,66.2a68,68,0,0,0-34.36,9.22A113.23,113.23,0,0,0,1021,45c-61.84,0-112,48.78-112,109a106.06,106.06,0,0,0,5.2,32.91A48.8,48.8,0,0,0,902.92,218.14Z" transform="translate(-25 -45)"/></svg>